<?xml version="1.0" encoding="UTF-8" standalone="no" ?>
<!DOCTYPE svg PUBLIC "-//W3C//DTD SVG 1.1//EN" "http://www.w3.org/Graphics/SVG/1.1/DTD/svg11.dtd">
<svg xmlns="http://www.w3.org/2000/svg" xmlns:xlink="http://www.w3.org/1999/xlink" version="1.1" width="1280" height="1024" viewBox="0 0 1280 1024" xml:space="preserve">
<desc>Created with Fabric.js 5.3.0</desc>
<defs>
</defs>
<g transform="matrix(1 0 0 1 640 512)" id="background-logo"  >
<rect style="stroke: none; stroke-width: 0; stroke-dasharray: none; stroke-linecap: butt; stroke-dashoffset: 0; stroke-linejoin: miter; stroke-miterlimit: 4; fill: rgb(255,255,255); fill-opacity: 0; fill-rule: nonzero; opacity: 1;"  paint-order="stroke"  x="-640" y="-512" rx="0" ry="0" width="1280" height="1024" />
</g>
<g transform="matrix(2.4539294482380383 0 0 2.4539294482380383 640 416.25113478931456)" id="logo-logo"  >
<g style=""  paint-order="stroke"   >
		<g transform="matrix(1.139009764206033 0 0 1.1390097642060328 0 0)"  >
<g style=""  paint-order="stroke"   >
		<g transform="matrix(1 0 0 1 0 0)"  >
<path style="stroke: none; stroke-width: 1; stroke-dasharray: none; stroke-linecap: butt; stroke-dashoffset: 0; stroke-linejoin: miter; stroke-miterlimit: 4; fill: rgb(0,0,0); fill-rule: nonzero; opacity: 1;"  paint-order="stroke"  transform=" translate(-92.91499999999999, -66.445)" d="M 181.67 56.32 C 178.58999999999997 41.32 168.76 27.59 153.89 17.53 C 137.29 6.3 115.52 0.12 92.58 0.12 C 69.64 0.12 47.88 6.3 31.27 17.53 C 16.41 27.59 6.58 41.34 3.5 56.32 L 0 56.32 L 0 76.57 L 3.5 76.57 C 6.58 91.57 16.41 105.3 31.27 115.35999999999999 C 47.879999999999995 126.57999999999998 69.65 132.76999999999998 92.58 132.76999999999998 C 115.50999999999999 132.76999999999998 137.29 126.57999999999998 153.89 115.35999999999999 C 168.36999999999998 105.57 178.46999999999997 91.45999999999998 181.70999999999998 76.57 L 185.82999999999998 76.57 L 185.82999999999998 56.32 Z M 32.33 19.09 C 48.63 8.08 70 2 92.58 2 C 115.16 2 136.57999999999998 8.07 152.84 19.08 C 167.17000000000002 28.779999999999998 176.69 41.959999999999994 179.76 56.309999999999995 L 166.07 56.309999999999995 C 159.07 32.589999999999996 128.32999999999998 15.449999999999996 92.58 15.449999999999996 C 57 15.46 26.1 32.64 19.1 56.32 L 5.43 56.32 C 8.5 42 18 28.78 32.33 19.09 Z M 160.8 76.57 L 164.08 76.57 C 163.86 77.25999999999999 163.62 77.94999999999999 163.37 78.63 Z M 22 79 L 21.14 76.57 L 25 76.57 Z M 1.89 74.68 L 1.89 58.21 L 26.2 58.21 L 26.2 74.68 Z M 152.89 113.79 C 136.58999999999997 124.79 115.18999999999998 130.88 92.63 130.88 C 70.07000000000001 130.88 48.67999999999999 124.81 32.379999999999995 113.78999999999999 C 18 104.1 8.5 90.92 5.43 76.57 L 19.12 76.57 C 19.55738711521791 78.07700409328369 20.08500613896787 79.5563409763295 20.699999999999992 81 L 21.12 82.17 L 21.2 82.10000000000001 C 31 102.93 59.67 117.46000000000001 92.58 117.46000000000001 C 128.32 117.46000000000001 159.05 100.33000000000001 166.07 76.61000000000001 L 179.75 76.79000000000002 C 176.47 91 166.72 104.41 152.84 113.79 Z M 183.98999999999998 74.68 L 159.63 74.68 L 159.63 58.21 L 183.94 58.21 Z" stroke-linecap="round" />
</g>
</g>
</g>
		<g transform="matrix(0 0.28806217191338424 -0.28806217191338424 0 36.43575184850863 19.877194723810703)"  >
<g style=""  paint-order="stroke"   >
		<g transform="matrix(1 0 0 1 0 0)"  >
<path style="stroke: none; stroke-width: 1; stroke-dasharray: none; stroke-linecap: butt; stroke-dashoffset: 0; stroke-linejoin: miter; stroke-miterlimit: 4; fill: rgb(242,232,207); fill-rule: nonzero; opacity: 1;"  paint-order="stroke"  transform=" translate(-88.9853662531041, -100.02)" d="M 177.9 99.35 C 177.97 89.00999999999999 174.9 78.83999999999999 174.54 77.63999999999999 C 173.9304446786373 93.76656295481676 170.03776036931853 109.59930778983428 163.09999999999997 124.16999999999999 C 161.5416418118268 127.21898489937995 160.26952349795707 130.405976043601 159.3 133.68999999999997 C 159.29999999999998 133.69 154.52999999999997 118.69 149.07 107.56 C 153.73 109.07000000000001 158.78 100.56 159.62 94.97 C 161.99009480801385 79.96576979758481 160.11974859196263 64.5977583890306 154.21999999999997 50.59999999999999 C 152.1089428649464 45.48061995530341 149.57344001820968 40.546758874911944 146.64 35.84999999999997 C 150.47 49.02 152.25 63.22 150.70999999999998 76.78 C 150.17999999999998 84.39 147.52999999999997 90.94 146.57999999999998 98.35 C 146.38703800223954 100.22102386017805 146.61949714826787 102.11146368008505 147.26 103.88 C 145.14 99.72 136.6 85.11 133.26 81.03 C 139.7 80.1 139.92999999999998 71.45 139.39 66.31 C 135.76 31.310000000000002 121.38999999999999 15.480000000000004 118.01999999999998 11.36 C 124.50999999999998 28.75 127.74999999999999 46.75 127.32999999999998 62.8 C 127.32999999999998 66.53 126.97999999999999 70.34 127.81999999999998 74.02 C 122.99792880009072 68.14320727821215 117.77548743562528 62.60668434736169 112.19 57.45 C 117.37999999999998 55.449999999999996 115.94999999999999 49.279999999999994 114.78999999999998 44.72 C 112.05118122444514 34.949835392410755 107.4127081167603 25.81561142650833 101.13999999999996 17.840000000000003 C 97.86999999999998 13.49 88.25999999999998 4.49 87.38999999999997 3.84 C 96.76999999999997 19.41 100.91999999999997 34.41 103.69999999999997 50.129999999999995 Q 98.75999999999998 46.129999999999995 93.50999999999998 42.47 C 97.50999999999998 39.74 95.16999999999997 35.1 93.09999999999998 31.71 C 86.30157010474122 20.234067068837362 77.04679356928446 10.40556268911611 65.99999999999996 2.92999999999995 C 71.86279311558366 13.290249968411338 77.1345555026019 23.973998947802507 81.78999999999985 34.92999999999986 Q 75.94 31.5 69.78999999999999 28.48 C 70.59 11.39 19.86 0.42 0 0 C 9.090330451349164 2.8347013037589828 18.002920222063544 6.210732872958063 26.689999999999813 10.109999999999957 C 32.92 12.94 57 27.28 60.39 28.63 C 62.4861430509593 29.631044212028993 64.82354465321424 30.015987205872165 67.13 29.739999999999995 Q 74.83999999999999 33.42 82.13 37.739999999999995 C 68.42999999999999 37.19 54.41 36.3 40.3 35.629999999999995 C 43.3 37.16 66.22999999999999 45.28999999999999 69.75 46.059999999999995 C 84.52 50.42999999999999 92.75 48.26 93.75 45.35999999999999 Q 99.81 49.67999999999999 105.43 54.46999999999999 C 103.4677328240496 54.14408143644429 101.47323955417016 54.056780384227345 99.49 54.209999999999994 C 87.41000000000001 54.49999999999999 74.86000000000001 54.75999999999999 62.790000000000006 55.49999999999999 C 67.11000000000001 57.15999999999999 93.67 65.33 104.79 65.77999999999999 C 108.25 65.91999999999999 112.25 65.21 113.10000000000001 61.43999999999998 C 117.35547986653616 65.55185621417228 121.38473487131006 69.89156748691963 125.16999999999997 74.43999999999993 C 124.53000000000002 73.67999999999998 114.78000000000002 72.75999999999998 110.17000000000002 72.43999999999998 C 98.67000000000002 71.89999999999998 84.69000000000001 71.43999999999998 73.45000000000002 69.86999999999999 C 74.94000000000001 70.71 123.63000000000002 92.52999999999999 130.29000000000002 80.94999999999999 C 130.58 80.43999999999998 136.8 89.78999999999999 143.19000000000003 101.08999999999999 C 139.19000000000003 98.54999999999998 134.70000000000002 97.72999999999999 130.31000000000003 96.24999999999999 Q 125.09000000000003 94.84999999999998 119.80000000000003 93.50999999999999 C 111.31115071170821 91.55462804197866 102.68654330304074 90.24422257523538 94.00000000000006 89.59 C 104.8 94.87 126.78 105.80000000000001 137.35 110.87 C 140.66 112.46000000000001 145.35 113.45 147.85999999999999 110.37 C 150.92999999999998 116.81 156.98 133.83 156.92 133.75 C 154.51 130.24 149.01 128.06 138.14999999999998 123.88 C 128.95999999999998 120.33999999999999 110.14999999999998 108.32 110.14999999999998 108.32 C 110.87999999999998 110.71 150.54999999999998 151.57 159.51999999999998 143.04 C 159.51999999999998 143.04 165.83999999999997 164.22 164.24999999999997 200.04 L 166.55999999999997 200.04 C 168.01999999999998 166.28 161.62999999999997 142.13 161.62999999999997 142.13 C 170.62999999999997 145.31 174.62999999999997 126.33 176.16999999999996 120.06 C 177.60467726574328 113.25532687567872 178.18582133162585 106.29839415635644 177.9 99.34999999999998 Z" stroke-linecap="round" />
</g>
</g>
</g>
		<g transform="matrix(0 0.3137600244259916 0.3137600244259917 0 -33.865966597247905 17.590085850188643)"  >
<g style=""  paint-order="stroke"   >
		<g transform="matrix(1 0 0 1 0 0)"  >
<path style="stroke: none; stroke-width: 1; stroke-dasharray: none; stroke-linecap: butt; stroke-dashoffset: 0; stroke-linejoin: miter; stroke-miterlimit: 4; fill: rgb(242,232,207); fill-rule: nonzero; opacity: 1;"  paint-order="stroke"  transform=" translate(-88.9853662531041, -100.02)" d="M 177.9 99.35 C 177.97 89.00999999999999 174.9 78.83999999999999 174.54 77.63999999999999 C 173.9304446786373 93.76656295481676 170.03776036931853 109.59930778983428 163.09999999999997 124.16999999999999 C 161.5416418118268 127.21898489937995 160.26952349795707 130.405976043601 159.3 133.68999999999997 C 159.29999999999998 133.69 154.52999999999997 118.69 149.07 107.56 C 153.73 109.07000000000001 158.78 100.56 159.62 94.97 C 161.99009480801385 79.96576979758481 160.11974859196263 64.5977583890306 154.21999999999997 50.59999999999999 C 152.1089428649464 45.48061995530341 149.57344001820968 40.546758874911944 146.64 35.84999999999997 C 150.47 49.02 152.25 63.22 150.70999999999998 76.78 C 150.17999999999998 84.39 147.52999999999997 90.94 146.57999999999998 98.35 C 146.38703800223954 100.22102386017805 146.61949714826787 102.11146368008505 147.26 103.88 C 145.14 99.72 136.6 85.11 133.26 81.03 C 139.7 80.1 139.92999999999998 71.45 139.39 66.31 C 135.76 31.310000000000002 121.38999999999999 15.480000000000004 118.01999999999998 11.36 C 124.50999999999998 28.75 127.74999999999999 46.75 127.32999999999998 62.8 C 127.32999999999998 66.53 126.97999999999999 70.34 127.81999999999998 74.02 C 122.99792880009072 68.14320727821215 117.77548743562528 62.60668434736169 112.19 57.45 C 117.37999999999998 55.449999999999996 115.94999999999999 49.279999999999994 114.78999999999998 44.72 C 112.05118122444514 34.949835392410755 107.4127081167603 25.81561142650833 101.13999999999996 17.840000000000003 C 97.86999999999998 13.49 88.25999999999998 4.49 87.38999999999997 3.84 C 96.76999999999997 19.41 100.91999999999997 34.41 103.69999999999997 50.129999999999995 Q 98.75999999999998 46.129999999999995 93.50999999999998 42.47 C 97.50999999999998 39.74 95.16999999999997 35.1 93.09999999999998 31.71 C 86.30157010474122 20.234067068837362 77.04679356928446 10.40556268911611 65.99999999999996 2.92999999999995 C 71.86279311558366 13.290249968411338 77.1345555026019 23.973998947802507 81.78999999999985 34.92999999999986 Q 75.94 31.5 69.78999999999999 28.48 C 70.59 11.39 19.86 0.42 0 0 C 9.090330451349164 2.8347013037589828 18.002920222063544 6.210732872958063 26.689999999999813 10.109999999999957 C 32.92 12.94 57 27.28 60.39 28.63 C 62.4861430509593 29.631044212028993 64.82354465321424 30.015987205872165 67.13 29.739999999999995 Q 74.83999999999999 33.42 82.13 37.739999999999995 C 68.42999999999999 37.19 54.41 36.3 40.3 35.629999999999995 C 43.3 37.16 66.22999999999999 45.28999999999999 69.75 46.059999999999995 C 84.52 50.42999999999999 92.75 48.26 93.75 45.35999999999999 Q 99.81 49.67999999999999 105.43 54.46999999999999 C 103.4677328240496 54.14408143644429 101.47323955417016 54.056780384227345 99.49 54.209999999999994 C 87.41000000000001 54.49999999999999 74.86000000000001 54.75999999999999 62.790000000000006 55.49999999999999 C 67.11000000000001 57.15999999999999 93.67 65.33 104.79 65.77999999999999 C 108.25 65.91999999999999 112.25 65.21 113.10000000000001 61.43999999999998 C 117.35547986653616 65.55185621417228 121.38473487131006 69.89156748691963 125.16999999999997 74.43999999999993 C 124.53000000000002 73.67999999999998 114.78000000000002 72.75999999999998 110.17000000000002 72.43999999999998 C 98.67000000000002 71.89999999999998 84.69000000000001 71.43999999999998 73.45000000000002 69.86999999999999 C 74.94000000000001 70.71 123.63000000000002 92.52999999999999 130.29000000000002 80.94999999999999 C 130.58 80.43999999999998 136.8 89.78999999999999 143.19000000000003 101.08999999999999 C 139.19000000000003 98.54999999999998 134.70000000000002 97.72999999999999 130.31000000000003 96.24999999999999 Q 125.09000000000003 94.84999999999998 119.80000000000003 93.50999999999999 C 111.31115071170821 91.55462804197866 102.68654330304074 90.24422257523538 94.00000000000006 89.59 C 104.8 94.87 126.78 105.80000000000001 137.35 110.87 C 140.66 112.46000000000001 145.35 113.45 147.85999999999999 110.37 C 150.92999999999998 116.81 156.98 133.83 156.92 133.75 C 154.51 130.24 149.01 128.06 138.14999999999998 123.88 C 128.95999999999998 120.33999999999999 110.14999999999998 108.32 110.14999999999998 108.32 C 110.87999999999998 110.71 150.54999999999998 151.57 159.51999999999998 143.04 C 159.51999999999998 143.04 165.83999999999997 164.22 164.24999999999997 200.04 L 166.55999999999997 200.04 C 168.01999999999998 166.28 161.62999999999997 142.13 161.62999999999997 142.13 C 170.62999999999997 145.31 174.62999999999997 126.33 176.16999999999996 120.06 C 177.60467726574328 113.25532687567872 178.18582133162585 106.29839415635644 177.9 99.34999999999998 Z" stroke-linecap="round" />
</g>
</g>
</g>
		<g transform="matrix(0.08523618113710565 0 0 0.08523618113710565 2.5145334516100775 39.52091541856825)"  >
<g style=""  paint-order="stroke"   >
		<g transform="matrix(1 0 0 1 0 0)"  >
<polygon style="stroke: none; stroke-width: 1; stroke-dasharray: none; stroke-linecap: butt; stroke-dashoffset: 0; stroke-linejoin: miter; stroke-miterlimit: 4; fill: rgb(242,232,207); fill-rule: nonzero; opacity: 1;"  paint-order="stroke"  points="100,-22.430000000000007 30.900000000000006,-32.46 0,-95 -30.900000000000006,-32.46 -100,-22.430000000000007 -50,26.260000000000005 -61.8,95 0,62.55000000000001 61.80000000000001,95 50,26.260000000000005 100,-22.430000000000007 " />
</g>
</g>
</g>
</g>
</g>
<g transform="matrix(1.9211538461538462 0 0 1.9211538461538462 639.7932920212764 686.257178624948)" id="text-logo"  >
<g style=""  paint-order="stroke"   >
		<g transform="matrix(1 0 0 1 0 0)" id="text-logo-path-0"  >
<path style="stroke: none; stroke-width: 0.553191489361702; stroke-dasharray: none; stroke-linecap: butt; stroke-dashoffset: 0; stroke-linejoin: miter; stroke-miterlimit: 4; fill: rgb(0,0,0); fill-rule: nonzero; opacity: 1;"  paint-order="stroke"  transform=" translate(-160.23999999999998, 18.72)" d="M 17.99 -35.88 L 1.04 -35.88 L 1.04 -35.36 C 2.91 -35.36 4.99 -35 4.99 -33.02 L 4.99 -2.86 C 4.99 -0.88 2.91 -0.52 1.04 -0.52 L 1.04 0 L 15.7 0 L 15.7 -0.52 C 13.83 -0.52 11.75 -0.88 11.75 -2.86 L 11.75 -17 C 13.42 -13.05 16.69 -8.79 21.01 -8.79 C 26.16 -8.79 30.47 -13.99 30.47 -21.94 C 30.47 -30.68 24.39 -35.88 17.99 -35.88 Z M 11.75 -21.37 L 11.75 -31.2 C 13.36 -32.5 14.87 -33.07 16.48 -33.07 C 20.44 -33.07 23.24 -28.6 23.24 -22.88 C 23.24 -16.07 20.02 -13.52 17.32 -13.52 C 14.51 -13.52 12.22 -17.68 11.75 -21.37 Z M 38.74 -0.52 L 38.74 0 L 53.92 0 L 53.92 -0.52 C 52.05 -0.52 49.97 -0.88 49.97 -2.86 L 49.97 -33.8 C 49.97 -35.2 49.97 -36.4 50.49 -37.96 C 48.52 -36.61 45.29 -35.93 42.85 -35.88 L 38.74 -35.88 L 38.74 -35.36 C 40.61 -35.36 42.69 -35 42.69 -33.02 L 42.69 -2.86 C 42.69 -0.88 40.61 -0.52 38.74 -0.52 Z M 79.66 -35.88 L 62.71 -35.88 L 62.71 -35.36 C 64.58 -35.36 66.66 -35 66.66 -33.02 L 66.66 -2.86 C 66.66 -0.88 64.58 -0.52 62.71 -0.52 L 62.71 0 L 77.38 0 L 77.38 -0.52 C 75.5 -0.52 73.42 -0.88 73.42 -2.86 L 73.42 -17 C 75.09 -13.05 78.36 -8.79 82.68 -8.79 C 87.83 -8.79 92.14 -13.99 92.14 -21.94 C 92.14 -30.68 86.06 -35.88 79.66 -35.88 Z M 73.42 -21.37 L 73.42 -31.2 C 75.04 -32.5 76.54 -33.07 78.16 -33.07 C 82.11 -33.07 84.92 -28.6 84.92 -22.88 C 84.92 -16.07 81.69 -13.52 78.99 -13.52 C 76.18 -13.52 73.89 -17.68 73.42 -21.37 Z M 117.36 -35.88 L 100.41 -35.88 L 100.41 -35.36 C 102.28 -35.36 104.36 -35 104.36 -33.02 L 104.36 -2.86 C 104.36 -0.88 102.28 -0.52 100.41 -0.52 L 100.41 0 L 115.08 0 L 115.08 -0.52 C 113.2 -0.52 111.12 -0.88 111.12 -2.86 L 111.12 -17 C 112.79 -13.05 116.06 -8.79 120.38 -8.79 C 125.53 -8.79 129.84 -13.99 129.84 -21.94 C 129.84 -30.68 123.76 -35.88 117.36 -35.88 Z M 111.12 -21.37 L 111.12 -31.2 C 112.74 -32.5 114.24 -33.07 115.86 -33.07 C 119.81 -33.07 122.62 -28.6 122.62 -22.88 C 122.62 -16.07 119.39 -13.52 116.69 -13.52 C 113.88 -13.52 111.59 -17.68 111.12 -21.37 Z M 138.11 -0.52 L 138.11 0 L 165.46 0 L 165.67 -0.68 L 168.17 -8.58 L 167.18 -8.89 C 165.88 -4.78 164.32 -1.82 160.06 -1.82 L 149.86 -1.82 L 149.86 -15.6 C 151.37 -17.16 153.4 -18.04 155.69 -18.04 C 156.83 -18.04 158.18 -17.94 159.12 -17.37 C 159.54 -19.19 160.99 -21.63 163.49 -23.45 L 158.44 -23.45 C 155.9 -23.45 153.66 -22.36 152.1 -20.38 L 149.86 -17.63 L 149.86 -34.06 L 151.58 -34.06 C 158.76 -34.06 159.12 -29.38 164.63 -29.38 C 164.53 -31.72 165.46 -33.54 167.44 -35.88 L 138.11 -35.88 L 138.11 -35.36 C 139.98 -35.36 142.06 -35 142.06 -33.02 L 142.06 -2.86 C 142.06 -0.88 139.98 -0.52 138.11 -0.52 Z M 176.96 -0.52 L 176.96 0 L 191.62 0 L 191.62 -0.52 C 189.75 -0.52 187.67 -0.88 187.67 -2.86 L 187.67 -11.39 C 188.6 -12.9 190.32 -14.09 192.3 -15.18 C 195.73 -15.55 199.11 -13.88 199.11 -8.89 L 199.11 -6.24 C 199.11 -1.4 203.01 0.52 207.17 0.52 C 209.66 0.52 211.02 -0.16 212 -1.56 C 211.64 -1.61 211.22 -1.92 210.86 -2.39 C 210.76 -1.35 209.87 -0.52 208.73 -0.52 C 206.54 -0.52 206.39 -4.16 206.39 -6.19 L 206.39 -9.98 C 206.39 -15.65 202.07 -17.63 197.96 -17.63 C 197.76 -17.63 197.5 -17.63 197.24 -17.58 C 201.92 -19.81 206.39 -22.26 206.39 -26.88 C 206.39 -32.76 200.3 -35.88 193.91 -35.88 L 176.96 -35.88 L 176.96 -35.36 C 178.83 -35.36 180.91 -35 180.91 -33.02 L 180.91 -2.86 C 180.91 -0.88 178.83 -0.52 176.96 -0.52 Z M 187.67 -14.56 L 187.67 -32.19 C 189.28 -33.44 190.79 -33.8 192.4 -33.8 C 196.35 -33.8 199.16 -30.26 199.16 -26.88 C 199.16 -19.66 191.57 -18.1 187.67 -14.56 Z M 235.25 0.52 C 245.6 0.52 253.19 -6.6 253.29 -17.99 C 253.45 -28.7 246.74 -36.4 235.66 -36.4 C 225.32 -36.4 217.72 -29.28 217.67 -17.99 C 217.46 -7.18 224.17 0.52 235.25 0.52 Z M 225.58 -17.94 C 224.38 -27.09 227.4 -33.64 233.64 -33.64 C 239.41 -33.64 244.24 -27.77 245.44 -17.94 C 246.58 -8.68 243.57 -2.13 237.33 -2.13 C 231.5 -2.13 226.62 -8.06 225.58 -17.94 Z M 289.43 -33.02 L 289.43 -12.53 L 272.27 -35.88 L 261.56 -35.88 L 261.56 -35.36 C 263.43 -35.36 265.51 -35 265.51 -33.02 L 265.51 -2.86 C 265.51 -0.88 263.43 -0.52 261.56 -0.52 L 261.56 0 L 271.54 0 L 271.54 -0.52 C 269.67 -0.52 267.59 -0.88 267.59 -2.86 L 267.59 -31.67 L 291.46 0.52 C 291.25 -1.92 292.5 -4.47 294.22 -6.03 L 291.51 -9.72 L 291.51 -33.02 C 291.51 -35 293.59 -35.36 295.46 -35.36 L 295.46 -35.88 L 285.48 -35.88 L 285.48 -35.36 C 287.35 -35.36 289.43 -35 289.43 -33.02 Z M 304.25 -0.52 L 304.25 0 L 319.44 0 L 319.44 -0.52 C 317.56 -0.52 315.48 -0.88 315.48 -2.86 L 315.48 -33.8 C 315.48 -35.2 315.48 -36.4 316 -37.96 C 314.03 -36.61 310.8 -35.93 308.36 -35.88 L 304.25 -35.88 L 304.25 -35.36 C 306.12 -35.36 308.2 -35 308.2 -33.02 L 308.2 -2.86 C 308.2 -0.88 306.12 -0.52 304.25 -0.52 Z" stroke-linecap="round" />
</g>
</g>
</g>
<g transform="matrix(1.9211538461538462 0 0 1.9211538461538462 639.912087217096 385.75637561726256)" id="tagline-cea259bf-181e-4c11-afa7-2a56627bacf6-logo"  >
<g style=""  paint-order="stroke"   >
		<g transform="matrix(1 0 0 1 0 0)" id="tagline-cea259bf-181e-4c11-afa7-2a56627bacf6-logo-path-0"  >
<path style="stroke: none; stroke-width: 0; stroke-dasharray: none; stroke-linecap: butt; stroke-dashoffset: 0; stroke-linejoin: miter; stroke-miterlimit: 4; fill: rgb(242,232,207); fill-rule: nonzero; opacity: 1;"  paint-order="stroke"  transform=" translate(-24.845, 28.29)" d="M 28.37 -56.58 L 1.64 -56.58 L 1.64 -55.76 C 4.59 -55.76 7.87 -55.19 7.87 -52.07 L 7.87 -4.51 C 7.87 -1.39 4.59 -0.82 1.64 -0.82 L 1.64 0 L 24.76 0 L 24.76 -0.82 C 21.81 -0.82 18.53 -1.39 18.53 -4.51 L 18.53 -26.81 C 21.16 -20.58 26.32 -13.86 33.13 -13.86 C 41.25 -13.86 48.05 -22.06 48.05 -34.6 C 48.05 -48.38 38.46 -56.58 28.37 -56.58 Z M 18.53 -33.7 L 18.53 -49.2 C 21.07 -51.25 23.45 -52.15 25.99 -52.15 C 32.23 -52.15 36.65 -45.1 36.65 -36.08 C 36.65 -25.34 31.57 -21.32 27.31 -21.32 C 22.88 -21.32 19.27 -27.88 18.53 -33.7 Z" stroke-linecap="round" />
</g>
</g>
</g>
<g transform="matrix(1.9211538461538462 0 0 1.9211538461538462 639.7501659448841 772.2108999113636)" id="tagline-0a54f8c7-56e2-4908-9c5e-b8e1a8c1493d-logo"  >
<g style=""  paint-order="stroke"   >
		<g transform="matrix(1 0 0 1 0 0)" id="tagline-0a54f8c7-56e2-4908-9c5e-b8e1a8c1493d-logo-path-0"  >
<path style="stroke: none; stroke-width: 0; stroke-dasharray: none; stroke-linecap: butt; stroke-dashoffset: 0; stroke-linejoin: miter; stroke-miterlimit: 4; fill: rgb(0,0,0); fill-rule: nonzero; opacity: 1;"  paint-order="stroke"  transform=" translate(-217.68, 8.399999999999999)" d="M 1.15 0 L 3.6 0 L 3.6 -15.58 C 3.96 -15.82 4.51 -16.01 5.35 -16.01 C 7.03 -16.01 8.83 -14.54 8.83 -12.22 C 8.83 -10.22 7.63 -8.42 3.77 -7.54 L 10.51 0.19 L 12.96 -0.22 L 6.43 -6.94 C 9.26 -8.4 11.33 -10.37 11.33 -12.82 C 11.33 -15.82 7.82 -16.99 3.96 -16.99 C 2.59 -16.99 1.56 -16.85 1.15 -16.8 Z M 23.83 0 L 26.28 0 L 26.28 -16.8 L 23.83 -16.8 Z M 46.92 -14.9 C 46.1 -16.03 45.26 -16.99 42.89 -16.99 C 40.1 -16.99 38.4 -14.76 38.4 -12.98 C 38.4 -9.05 45.22 -6.58 45.22 -3.67 C 45.22 -2.33 44.45 -1.3 42.7 -1.3 C 40.9 -1.3 39.43 -2.23 38.76 -3.38 L 37.9 -2.93 C 38.83 -1.1 40.32 0.19 42.7 0.19 C 45.82 0.19 47.52 -1.92 47.52 -4.18 C 47.52 -8.14 40.61 -10.63 40.61 -13.68 C 40.61 -14.9 41.62 -15.91 42.86 -15.91 C 43.87 -15.91 44.64 -14.74 45.19 -13.58 Z M 64.08 0 L 66.53 0 L 66.53 -15.65 L 72.31 -15.65 L 72.31 -16.8 L 58.27 -16.8 L 58.27 -15.65 L 64.08 -15.65 Z M 83.06 -8.4 C 83.06 -3.46 86.4 0.19 90.84 0.19 C 95.28 0.19 98.62 -3.46 98.62 -8.4 C 98.62 -13.34 95.28 -16.99 90.84 -16.99 C 86.4 -16.99 83.06 -13.34 83.06 -8.4 Z M 85.56 -8.4 C 85.56 -12.19 87.67 -16.08 90.84 -16.08 C 94.01 -16.08 96.12 -12.19 96.12 -8.4 C 96.12 -4.61 94.01 -0.72 90.84 -0.72 C 87.67 -0.72 85.56 -4.61 85.56 -8.4 Z M 110.23 0 L 112.68 0 L 112.68 -15.58 C 113.04 -15.82 113.59 -16.01 114.43 -16.01 C 116.11 -16.01 117.91 -14.54 117.91 -12.22 C 117.91 -10.22 116.71 -8.42 112.85 -7.54 L 119.59 0.19 L 122.04 -0.22 L 115.51 -6.94 C 118.34 -8.4 120.41 -10.37 120.41 -12.82 C 120.41 -15.82 116.9 -16.99 113.04 -16.99 C 111.67 -16.99 110.64 -16.85 110.23 -16.8 Z M 130.97 0 L 132.22 0 L 134.35 -5.02 L 141.41 -5.02 L 143.54 0 L 145.99 0 L 138.79 -16.99 L 138.19 -16.99 L 133.58 -6.17 L 133.58 -6.14 Z M 134.86 -6.17 L 137.9 -13.3 L 140.93 -6.17 Z M 157.03 0 L 158.18 0 L 158.18 -12.89 L 169.32 0 L 170.09 0 L 170.09 -16.8 L 169.01 -16.8 L 169.01 -4.03 L 158.09 -16.8 L 157.03 -16.8 Z M 186.74 0 L 189.19 0 L 189.19 -15.65 L 194.98 -15.65 L 194.98 -16.8 L 180.94 -16.8 L 180.94 -15.65 L 186.74 -15.65 Z M 206.02 0 L 215.26 0 L 215.26 -1.15 L 208.46 -1.15 L 208.46 -8.3 L 213.89 -8.3 L 213.89 -9.46 L 208.46 -9.46 L 208.46 -15.65 L 215.26 -15.65 L 215.26 -16.8 L 206.02 -16.8 Z M 242.71 0 L 251.95 0 L 251.95 -1.15 L 245.16 -1.15 L 245.16 -8.3 L 250.58 -8.3 L 250.58 -9.46 L 245.16 -9.46 L 245.16 -15.65 L 251.95 -15.65 L 251.95 -16.8 L 242.71 -16.8 Z M 279.41 0 L 281.86 0 L 281.86 -6.84 C 286.03 -7.34 289.58 -9.58 289.58 -12.82 C 289.58 -15.82 286.08 -16.99 282.22 -16.99 C 280.85 -16.99 279.82 -16.85 279.41 -16.8 Z M 281.86 -15.82 C 282.22 -15.89 282.62 -16.01 283.61 -16.01 C 285.43 -16.01 287.09 -14.69 287.09 -12.22 C 287.09 -10.27 285.98 -8.14 281.86 -7.54 Z M 301.2 0 L 303.65 0 L 303.65 -16.8 L 301.2 -16.8 Z M 316.92 -16.8 L 316.3 -15.65 L 323.98 -15.65 L 315.26 0 L 327.24 0 L 327.24 -1.08 L 318.46 -1.08 L 327.1 -16.22 L 327.1 -16.8 Z M 340.22 -16.8 L 339.6 -15.65 L 347.28 -15.65 L 338.57 0 L 350.54 0 L 350.54 -1.08 L 341.76 -1.08 L 350.4 -16.22 L 350.4 -16.8 Z M 362.16 0 L 371.4 0 L 371.4 -1.15 L 364.61 -1.15 L 364.61 -8.3 L 370.03 -8.3 L 370.03 -9.46 L 364.61 -9.46 L 364.61 -15.65 L 371.4 -15.65 L 371.4 -16.8 L 362.16 -16.8 Z M 383.02 0 L 385.46 0 L 385.46 -15.58 C 385.82 -15.82 386.38 -16.01 387.22 -16.01 C 388.9 -16.01 390.7 -14.54 390.7 -12.22 C 390.7 -10.22 389.5 -8.42 385.63 -7.54 L 392.38 0.19 L 394.82 -0.22 L 388.3 -6.94 C 391.13 -8.4 393.19 -10.37 393.19 -12.82 C 393.19 -15.82 389.69 -16.99 385.82 -16.99 C 384.46 -16.99 383.42 -16.85 383.02 -16.8 Z M 405.7 0 L 408.14 0 L 408.14 -16.8 L 405.7 -16.8 Z M 419.18 0 L 420.43 0 L 422.57 -5.02 L 429.62 -5.02 L 431.76 0 L 434.21 0 L 427.01 -16.99 L 426.41 -16.99 L 421.8 -6.17 L 421.8 -6.14 Z M 423.07 -6.17 L 426.12 -13.3 L 429.14 -6.17 Z" stroke-linecap="round" />
</g>
</g>
</g>
</svg>